<?xml version="1.0" encoding="UTF-8"?>
<svg xmlns="http://www.w3.org/2000/svg" version="1.1" viewBox="0 0 80 80">
  <defs>
    <style>
      .cls-1 {
        fill: #231f20;
      }
    </style>
  </defs>
  <!-- Generator: Adobe Illustrator 28.7.0, SVG Export Plug-In . SVG Version: 1.2.0 Build 136)  -->
  <g>
    <g id="Layer_1">
      <g>
        <path class="cls-1" d="M72.2,10.7h-22.7c-2,.1-2.6,2.2-2.6,2.2l-7.5,15.5-7-14.9c-.9-2.6-2.4-2.8-2.4-2.8H6.9c-4.6,1.6-2.8,5.6-2.8,5.6l13.3,23.3v-17c0-1.6,1.5-1.8,1.5-1.8h7.9s12.6,24.6,12.5,24.6c0,0,12.8-24.6,12.8-24.6h7.6c1.6,0,1.9,1.7,1.9,1.7v17.3l13.2-23.2c2.2-4.7-2.7-6-2.7-6Z"/>
        <path class="cls-1" d="M36.9,58.9l-10.7-20.9v16.8l10.2,17.7c3.5,4.1,6.4,0,6.4,0l10.2-17.5v-17l-10.8,20.9c-2.6,3.2-5.2,0-5.2,0Z"/>
      </g>
    </g>
  </g>
</svg>