<svg xmlns="http://www.w3.org/2000/svg" width="242.219" height="45.861" viewBox="0 0 242.219 45.861">
  <g id="Group_19141" data-name="Group 19141" transform="translate(16510 9118)">
    <g id="Group_19140" data-name="Group 19140" transform="translate(-16510 -9118)">
      <path id="Path_16582" data-name="Path 16582" d="M71.463,20.072H55.1a2.218,2.218,0,0,0-1.874,1.586L47.82,32.831,42.775,22.09c-.649-1.874-1.73-2.018-1.73-2.018H24.321A2.9,2.9,0,0,0,22.3,24.109L31.89,40.9V28.65a1.271,1.271,0,0,1,1.081-1.3h5.695s9.082,17.732,9.01,17.732L56.9,27.352h5.478a1.464,1.464,0,0,1,1.37,1.225v12.47l9.515-16.723C74.851,20.937,71.319,20,71.319,20Z" transform="translate(-22.053 -20)" fill="#231f20"/>
      <path id="Path_16583" data-name="Path 16583" d="M52.313,62.365,44.6,47.3V59.41l7.352,12.759c2.523,2.955,4.613,0,4.613,0l7.352-12.614V47.3L56.133,62.365c-1.874,2.307-3.748,0-3.748,0Z" transform="translate(-28.347 -27.621)" fill="#231f20"/>
    </g>
    <path id="Path_16584" data-name="Path 16584" d="M23.58-33.439,14-9.546H8.985L-.591-33.439h4.46a1.875,1.875,0,0,1,1.164.336,2.136,2.136,0,0,1,.672.861L10.33-19.451q.328.836.64,1.828t.59,2.074q.23-1.082.517-2.074t.615-1.828l4.592-12.791a1.993,1.993,0,0,1,.648-.828,1.808,1.808,0,0,1,1.156-.369Zm6.4,6.625a9.821,9.821,0,0,1,3.526.607,7.733,7.733,0,0,1,2.73,1.738A7.83,7.83,0,0,1,38-21.722a9.909,9.909,0,0,1,.631,3.632A10.089,10.089,0,0,1,38-14.425a7.885,7.885,0,0,1-1.771,2.771A7.77,7.77,0,0,1,33.5-9.9a9.7,9.7,0,0,1-3.526.615,9.818,9.818,0,0,1-3.55-.615,7.923,7.923,0,0,1-2.755-1.755,7.77,7.77,0,0,1-1.787-2.771,10.089,10.089,0,0,1-.631-3.665,9.909,9.909,0,0,1,.631-3.632,7.717,7.717,0,0,1,1.787-2.747,7.885,7.885,0,0,1,2.755-1.738A9.937,9.937,0,0,1,29.976-26.814Zm0,13.759a2.887,2.887,0,0,0,2.583-1.238,6.847,6.847,0,0,0,.828-3.764,6.8,6.8,0,0,0-.828-3.755,2.894,2.894,0,0,0-2.583-1.23,2.966,2.966,0,0,0-2.64,1.23,6.75,6.75,0,0,0-.836,3.755,6.793,6.793,0,0,0,.836,3.764A2.959,2.959,0,0,0,29.976-13.055ZM46.85-9.546H41.275V-33.439H46.85ZM57.017-23.764H57.9a2.011,2.011,0,0,0,1.771-.771l5.379-7.806a2.645,2.645,0,0,1,1.025-.861,3.455,3.455,0,0,1,1.369-.238h4.821L65.184-23.78a4.827,4.827,0,0,1-1.623,1.443,3.983,3.983,0,0,1,1.132.64,4.812,4.812,0,0,1,.951,1.066L72.859-9.546H67.906a4.309,4.309,0,0,1-.812-.066,2.08,2.08,0,0,1-.582-.2,1.676,1.676,0,0,1-.426-.32,3.172,3.172,0,0,1-.344-.435L60.33-18.877a1.63,1.63,0,0,0-.746-.648,3.235,3.235,0,0,0-1.222-.189H57.017V-9.546H51.475V-33.439h5.543Zm52.066-9.675V-9.546H104.2V-23.288q0-.476.025-1.033t.09-1.132L97.965-13.17a2.085,2.085,0,0,1-.8.869,2.2,2.2,0,0,1-1.14.3h-.754a2.2,2.2,0,0,1-1.14-.3,2.085,2.085,0,0,1-.8-.869L86.994-25.486q.049.59.082,1.156t.033,1.041V-9.546H82.222V-33.439h4.231q.361,0,.631.016a1.616,1.616,0,0,1,.484.1,1.1,1.1,0,0,1,.385.254,2,2,0,0,1,.336.484l6.15,12.119q.328.623.631,1.3t.582,1.377q.279-.722.582-1.41t.648-1.312l6.133-12.069a2,2,0,0,1,.336-.484,1.1,1.1,0,0,1,.385-.254,1.616,1.616,0,0,1,.484-.1q.271-.016.631-.016ZM121.53-16.466a16.877,16.877,0,0,0-2.509.262,6.1,6.1,0,0,0-1.558.492,1.885,1.885,0,0,0-.8.672,1.591,1.591,0,0,0-.221.82A1.425,1.425,0,0,0,116.922-13a2.32,2.32,0,0,0,1.394.353,4.034,4.034,0,0,0,1.722-.344A5.245,5.245,0,0,0,121.53-14.1ZM112.38-24.19a10.338,10.338,0,0,1,3.419-2.025,11.987,11.987,0,0,1,4.026-.664,7.363,7.363,0,0,1,2.78.5,5.982,5.982,0,0,1,2.1,1.394,6.091,6.091,0,0,1,1.32,2.124,7.632,7.632,0,0,1,.459,2.689V-9.546h-2.329a2.382,2.382,0,0,1-1.091-.2,1.5,1.5,0,0,1-.615-.82l-.361-.935q-.64.541-1.23.951a7.794,7.794,0,0,1-1.222.7,6.033,6.033,0,0,1-1.345.426,8.276,8.276,0,0,1-1.582.139,6.939,6.939,0,0,1-2.115-.3,4.413,4.413,0,0,1-1.615-.894,3.93,3.93,0,0,1-1.025-1.468,5.293,5.293,0,0,1-.361-2.025,4.227,4.227,0,0,1,.459-1.861,4.593,4.593,0,0,1,1.591-1.722,10.11,10.11,0,0,1,3.05-1.3,20.466,20.466,0,0,1,4.838-.59v-.722a3.118,3.118,0,0,0-.615-2.156,2.262,2.262,0,0,0-1.746-.664,4.633,4.633,0,0,0-1.476.2,6.635,6.635,0,0,0-1.025.443q-.451.246-.877.443a2.41,2.41,0,0,1-1.017.2,1.465,1.465,0,0,1-.886-.262,2.281,2.281,0,0,1-.59-.623ZM135.551-9.284a6,6,0,0,1-2.14-.353,4.251,4.251,0,0,1-1.558-1,4.264,4.264,0,0,1-.959-1.566,6.063,6.063,0,0,1-.328-2.05v-8.79h-1.443a.963.963,0,0,1-.672-.254.959.959,0,0,1-.279-.746v-1.984l2.706-.525,1-4.149a1.01,1.01,0,0,1,1.115-.787h2.657v4.969h4.214v3.477h-4.214V-14.6a1.589,1.589,0,0,0,.287.976.97.97,0,0,0,.828.385,1.627,1.627,0,0,0,.467-.057,1.861,1.861,0,0,0,.328-.131q.139-.074.262-.131a.672.672,0,0,1,.287-.057.592.592,0,0,1,.369.107,1.32,1.32,0,0,1,.287.336l1.541,2.411a7.016,7.016,0,0,1-2.214,1.107A8.8,8.8,0,0,1,135.551-9.284Zm11.266-14.644a7.149,7.149,0,0,1,1.812-2.165,3.758,3.758,0,0,1,2.353-.787,3.034,3.034,0,0,1,1.869.541l-.328,3.739a.785.785,0,0,1-.271.492.892.892,0,0,1-.517.131q-.131,0-.344-.016t-.443-.041l-.467-.049a4.252,4.252,0,0,0-.435-.025,2.58,2.58,0,0,0-1.779.59,4.643,4.643,0,0,0-1.123,1.64V-9.546h-5.084V-26.551h3.017a2.573,2.573,0,0,1,.631.066,1.107,1.107,0,0,1,.426.2.875.875,0,0,1,.262.369,3.328,3.328,0,0,1,.156.558Zm12.955-2.624V-9.546h-5.084V-26.551Zm.525-4.657a2.687,2.687,0,0,1-.246,1.14,3,3,0,0,1-.672.935,3.292,3.292,0,0,1-.992.64,3.079,3.079,0,0,1-1.205.238,2.862,2.862,0,0,1-1.164-.238,3.273,3.273,0,0,1-.959-.64,2.951,2.951,0,0,1-.656-.935,2.765,2.765,0,0,1-.238-1.14,2.862,2.862,0,0,1,.238-1.164,3.021,3.021,0,0,1,.656-.951,3.072,3.072,0,0,1,.959-.64,2.95,2.95,0,0,1,1.164-.23,3.175,3.175,0,0,1,1.205.23,3.1,3.1,0,0,1,.992.64,3.069,3.069,0,0,1,.672.951A2.78,2.78,0,0,1,160.3-31.209ZM179.6-9.546h-4.887a1.385,1.385,0,0,1-.877-.262,2,2,0,0,1-.533-.623l-3.034-5.215a3.723,3.723,0,0,1-.2.525,4.534,4.534,0,0,1-.246.459l-2.493,4.231a3.529,3.529,0,0,1-.541.607,1.16,1.16,0,0,1-.8.279h-4.526l5.707-8.79-5.477-8.216h4.887a1.725,1.725,0,0,1,.8.139,1.24,1.24,0,0,1,.451.467l3.034,5.034a4.122,4.122,0,0,1,.246-.582q.148-.287.328-.582l2.165-3.788a1.687,1.687,0,0,1,.484-.525,1.142,1.142,0,0,1,.631-.164h4.657l-5.477,7.986Z" transform="translate(-16447.379 -9076.306)" fill="#231f20"/>
  </g>
</svg>
