<?xml version="1.0" encoding="UTF-8"?>
<svg xmlns="http://www.w3.org/2000/svg" version="1.1" viewBox="0 0 395 95">
  <defs>
    <style>
      .cls-1, .cls-2, .cls-3 {
        fill: #231f20;
      }

      .cls-2, .cls-3, .cls-4 {
        font-weight: 800;
      }

      .cls-2, .cls-4 {
        font-family: Lato-Heavy, Lato;
        font-size: 46.3px;
      }

      .cls-3 {
        font-family: Lato-Black, Lato;
        font-size: 45.5px;
      }
    </style>
  </defs>
  <!-- Generator: Adobe Illustrator 28.7.0, SVG Export Plug-In . SVG Version: 1.2.0 Build 136)  -->
  <g>
    <g id="Layer_1">
      <g>
        <path class="cls-1" d="M90.6,20.1h-22.7c-2,.1-2.6,2.2-2.6,2.2l-7.5,15.5-7-14.9c-.9-2.6-2.4-2.8-2.4-2.8h-23.2c-4.6,1.6-2.8,5.6-2.8,5.6l13.3,23.3v-17c0-1.6,1.5-1.8,1.5-1.8h7.9s12.6,24.6,12.5,24.6c0,0,12.8-24.6,12.8-24.6h7.6c1.6,0,1.9,1.7,1.9,1.7v17.3l13.2-23.2c2.2-4.7-2.7-6-2.7-6Z"/>
        <path class="cls-1" d="M55.3,68.2l-10.7-20.9v16.8l10.2,17.7c3.5,4.1,6.4,0,6.4,0l10.2-17.5v-17l-10.8,20.9c-2.6,3.2-5.2,0-5.2,0Z"/>
        <g>
          <text class="cls-4" transform="translate(218.6 65)"><tspan x="0" y="0">Matrix </tspan></text>
          <text class="cls-2" transform="translate(218.6 65)"><tspan x="0" y="0">Matrix </tspan></text>
        </g>
        <text class="cls-3" transform="translate(108.7 64.6)"><tspan x="0" y="0">VoIK</tspan></text>
      </g>
    </g>
  </g>
</svg>