<svg xmlns="http://www.w3.org/2000/svg" width="193.216" height="39.211" viewBox="0 0 193.216 39.211">
  <g id="Group_19178" data-name="Group 19178" transform="translate(12667.313 23143.5)">
    <g id="Group_19177" data-name="Group 19177">
      <path id="Path_16597" data-name="Path 16597" d="M82.7,24.9H68.8a1.833,1.833,0,0,0-1.6,1.3l-4.6,9.5-4.3-9.1c-.6-1.6-1.5-1.7-1.5-1.7H42.5a2.444,2.444,0,0,0-1.7,3.4L49,42.6V32.2a1.046,1.046,0,0,1,.9-1.1h4.9s7.8,15.1,7.7,15.1l7.9-15.1h4.7a1.251,1.251,0,0,1,1.2,1V42.7l8.1-14.2a2.54,2.54,0,0,0-1.7-3.7Z" transform="translate(-12707.9 -23168.301)" fill="#231f20"/>
      <path id="Path_16598" data-name="Path 16598" d="M61,54.6,54.4,41.7V52l6.3,10.9a2.3,2.3,0,0,0,3.9,0l6.3-10.8V41.7L64.2,54.6a1.937,1.937,0,0,1-3.2,0Z" transform="translate(-12707.9 -23168.301)" fill="#231f20"/>
    </g>
    <path id="Path_16605" data-name="Path 16605" d="M20.272-20.4,12.1,0H7.812L-.364-20.4H3.444a1.6,1.6,0,0,1,.994.287,1.823,1.823,0,0,1,.574.735L8.96-8.456q.28.714.546,1.561t.5,1.771q.2-.924.441-1.771t.525-1.561l3.92-10.92a1.7,1.7,0,0,1,.553-.707,1.543,1.543,0,0,1,.987-.315Zm5.46,5.656a8.385,8.385,0,0,1,3.01.518,6.6,6.6,0,0,1,2.331,1.484A6.685,6.685,0,0,1,32.585-10.4a8.46,8.46,0,0,1,.539,3.1,8.613,8.613,0,0,1-.539,3.129A6.731,6.731,0,0,1,31.073-1.8,6.633,6.633,0,0,1,28.742-.3a8.285,8.285,0,0,1-3.01.525A8.382,8.382,0,0,1,22.7-.3a6.764,6.764,0,0,1-2.352-1.5,6.633,6.633,0,0,1-1.526-2.366,8.613,8.613,0,0,1-.539-3.129,8.46,8.46,0,0,1,.539-3.1,6.588,6.588,0,0,1,1.526-2.345A6.732,6.732,0,0,1,22.7-14.224,8.483,8.483,0,0,1,25.732-14.742ZM25.732-3a2.465,2.465,0,0,0,2.205-1.057,5.846,5.846,0,0,0,.707-3.213,5.808,5.808,0,0,0-.707-3.206,2.47,2.47,0,0,0-2.205-1.05,2.532,2.532,0,0,0-2.254,1.05,5.763,5.763,0,0,0-.714,3.206,5.8,5.8,0,0,0,.714,3.213A2.526,2.526,0,0,0,25.732-3ZM40.138,0h-4.76V-20.4h4.76Zm7.574-20.958V-9.212h.644a1.274,1.274,0,0,0,.616-.119,1.439,1.439,0,0,0,.42-.4l2.744-4.088a1.734,1.734,0,0,1,.574-.525,1.721,1.721,0,0,1,.826-.175h3.976L53.76-9.352A4.6,4.6,0,0,1,52.5-8.2a3.461,3.461,0,0,1,.588.553,5.589,5.589,0,0,1,.5.707L57.68,0H53.76a2,2,0,0,1-.84-.161,1.341,1.341,0,0,1-.588-.567L49.588-5.866a1.072,1.072,0,0,0-.406-.455,1.462,1.462,0,0,0-.63-.1h-.84V0h-4.34V-20.958ZM59.01,0V-14.518H61.7a1.021,1.021,0,0,1,1.064.728l.238.784a8.053,8.053,0,0,1,.756-.693,4.861,4.861,0,0,1,.847-.546,4.714,4.714,0,0,1,.98-.364,4.7,4.7,0,0,1,1.155-.133,3.408,3.408,0,0,1,2.177.679,4.231,4.231,0,0,1,1.309,1.813,4.292,4.292,0,0,1,.889-1.148,4.775,4.775,0,0,1,1.134-.77,5.509,5.509,0,0,1,1.288-.434,6.675,6.675,0,0,1,1.351-.14,6.14,6.14,0,0,1,2.212.371,4.212,4.212,0,0,1,1.617,1.078,4.655,4.655,0,0,1,.987,1.736,7.5,7.5,0,0,1,.336,2.331V0H75.7V-9.226q0-2.254-1.932-2.254A1.984,1.984,0,0,0,72.3-10.9a2.265,2.265,0,0,0-.581,1.673V0h-4.34V-9.226a2.483,2.483,0,0,0-.49-1.75,1.922,1.922,0,0,0-1.442-.5,2.429,2.429,0,0,0-1.113.266,4.045,4.045,0,0,0-.987.714V0ZM90.328-5.908a14.408,14.408,0,0,0-2.142.224,5.2,5.2,0,0,0-1.33.42,1.61,1.61,0,0,0-.679.574,1.359,1.359,0,0,0-.189.7,1.216,1.216,0,0,0,.406,1.043,1.981,1.981,0,0,0,1.19.3,3.443,3.443,0,0,0,1.47-.294,4.478,4.478,0,0,0,1.274-.952ZM82.516-12.5a8.825,8.825,0,0,1,2.919-1.729,10.233,10.233,0,0,1,3.437-.567,6.286,6.286,0,0,1,2.373.427,5.107,5.107,0,0,1,1.792,1.19,5.2,5.2,0,0,1,1.127,1.813,6.516,6.516,0,0,1,.392,2.3V0H92.568a2.033,2.033,0,0,1-.931-.168,1.283,1.283,0,0,1-.525-.7l-.308-.8q-.546.462-1.05.812a6.655,6.655,0,0,1-1.043.6,5.151,5.151,0,0,1-1.148.364,7.065,7.065,0,0,1-1.351.119,5.924,5.924,0,0,1-1.806-.259A3.768,3.768,0,0,1,83.027-.8a3.355,3.355,0,0,1-.875-1.253,4.519,4.519,0,0,1-.308-1.729,3.609,3.609,0,0,1,.392-1.589,3.922,3.922,0,0,1,1.358-1.47,8.631,8.631,0,0,1,2.6-1.113,17.472,17.472,0,0,1,4.13-.5v-.616a2.662,2.662,0,0,0-.525-1.841,1.931,1.931,0,0,0-1.491-.567,3.955,3.955,0,0,0-1.26.168,5.664,5.664,0,0,0-.875.378q-.385.21-.749.378a2.057,2.057,0,0,1-.868.168,1.251,1.251,0,0,1-.756-.224,1.948,1.948,0,0,1-.5-.532ZM102.3.224a5.118,5.118,0,0,1-1.827-.3,3.629,3.629,0,0,1-1.33-.854,3.64,3.64,0,0,1-.819-1.337,5.176,5.176,0,0,1-.28-1.75v-7.5H96.81a.822.822,0,0,1-.574-.217A.819.819,0,0,1,96-12.376V-14.07l2.31-.448.854-3.542a.863.863,0,0,1,.952-.672h2.268v4.242h3.6v2.968h-3.6v7.21a1.357,1.357,0,0,0,.245.833.828.828,0,0,0,.707.329,1.389,1.389,0,0,0,.4-.049,1.588,1.588,0,0,0,.28-.112q.119-.063.224-.112a.574.574,0,0,1,.245-.049.505.505,0,0,1,.315.091,1.127,1.127,0,0,1,.245.287l1.316,2.058a5.989,5.989,0,0,1-1.89.945A7.511,7.511,0,0,1,102.3.224Zm9.618-12.5a6.1,6.1,0,0,1,1.547-1.848,3.209,3.209,0,0,1,2.009-.672,2.59,2.59,0,0,1,1.6.462l-.28,3.192a.67.67,0,0,1-.231.42.761.761,0,0,1-.441.112q-.112,0-.294-.014t-.378-.035l-.4-.042a3.629,3.629,0,0,0-.371-.021,2.2,2.2,0,0,0-1.519.5,3.964,3.964,0,0,0-.959,1.4V0h-4.34V-14.518h2.576a2.2,2.2,0,0,1,.539.056.945.945,0,0,1,.364.175.747.747,0,0,1,.224.315,2.841,2.841,0,0,1,.133.476Zm11.06-2.24V0h-4.34V-14.518Zm.448-3.976a2.294,2.294,0,0,1-.21.973,2.561,2.561,0,0,1-.574.8,2.81,2.81,0,0,1-.847.546,2.629,2.629,0,0,1-1.029.2,2.443,2.443,0,0,1-.994-.2,2.794,2.794,0,0,1-.819-.546,2.52,2.52,0,0,1-.56-.8,2.361,2.361,0,0,1-.2-.973,2.443,2.443,0,0,1,.2-.994,2.579,2.579,0,0,1,.56-.812,2.622,2.622,0,0,1,.819-.546,2.518,2.518,0,0,1,.994-.2,2.71,2.71,0,0,1,1.029.2,2.643,2.643,0,0,1,.847.546,2.621,2.621,0,0,1,.574.812A2.374,2.374,0,0,1,123.424-18.494ZM139.9,0H135.73a1.183,1.183,0,0,1-.749-.224,1.707,1.707,0,0,1-.455-.532l-2.59-4.452a3.181,3.181,0,0,1-.168.448,3.872,3.872,0,0,1-.21.392L129.43-.756a3.013,3.013,0,0,1-.462.518.99.99,0,0,1-.686.238h-3.864l4.872-7.5-4.676-7.014h4.172a1.472,1.472,0,0,1,.679.119,1.058,1.058,0,0,1,.385.4l2.59,4.3a3.52,3.52,0,0,1,.21-.5q.126-.245.28-.5l1.848-3.234a1.44,1.44,0,0,1,.413-.448.975.975,0,0,1,.539-.14h3.976L135.03-7.7Z" transform="translate(-12614 -23116)" fill="#231f20"/>
  </g>
</svg>
